<svg xmlns="http://www.w3.org/2000/svg" xmlns:xlink="http://www.w3.org/1999/xlink" width="76" height="75" viewBox="0 0 76 75"><defs><path id="ykkea" d="M336.65 190.5c3.51-3.5 9.2-3.5 12.7 0l18.15 18.15c3.51 3.51 3.51 9.2 0 12.7l-18.14 18.15a8.99 8.99 0 0 1-12.7 0l-18.15-18.14a8.99 8.99 0 0 1 0-12.7z"/><path id="ykkef" d="M351.63 212.01a.7.7 0 0 1 .02.77L340.3 231.5a.79.79 0 0 1-.75.35l-.22-.07a.73.73 0 0 1-.4-.9l4.96-13.43-6.93.9h-.2a.8.8 0 0 1-.49-.25.7.7 0 0 1-.13-.7l5.06-13.71c.12-.32.45-.5.8-.46l5.42.66c.41.05.7.42.65.81 0 .1-.05.2-.12.3l-3.8 7.58 6.76-.87c.07-.01.13-.02.2-.01.21.02.4.15.53.32z"/><mask id="ykkec" width="2" height="2" x="-1" y="-1"><path fill="#fff" d="M315 187h56v56h-56z"/><use xlink:href="#ykkea"/></mask><filter id="ykkeb" width="101" height="101" x="293" y="165" filterUnits="userSpaceOnUse"><feOffset dx="1" dy="1" in="SourceGraphic" result="FeOffset1116Out"/><feGaussianBlur in="FeOffset1116Out" result="FeGaussianBlur1117Out" stdDeviation="4.8 4.8"/></filter><linearGradient id="ykked" x1="343" x2="343" y1="193.19" y2="226.31" gradientUnits="userSpaceOnUse"><stop offset="0" stop-color="#fad961"/><stop offset="1" stop-color="#f7be23"/></linearGradient><clipPath id="ykkee"><use fill="#fff" xlink:href="#ykkea"/></clipPath><linearGradient id="ykkeg" x1="343.57" x2="343.57" y1="203.52" y2="232.22" gradientUnits="userSpaceOnUse"><stop offset="0" stop-color="#fbfbfb" stop-opacity=".5"/><stop offset="1" stop-color="#dcdefa"/></linearGradient></defs><g><g transform="translate(-305 -179)"><g filter="url(#ykkeb)"><use fill="none" stroke-opacity=".44" stroke-width="0" mask="url(&quot;#ykkec&quot;)" xlink:href="#ykkea"/><use fill="#ebc64a" fill-opacity=".44" xlink:href="#ykkea"/></g><use fill="url(#ykked)" xlink:href="#ykkea"/><use fill="#fff" fill-opacity="0" stroke="#ecbe42" stroke-miterlimit="50" stroke-width="6.08" clip-path="url(&quot;#ykkee&quot;)" xlink:href="#ykkea"/><use fill="#fff" fill-opacity="0" stroke="#cda438" stroke-miterlimit="50" stroke-width=".72" xlink:href="#ykkea"/></g><g transform="translate(-305 -179)"><use fill="#fff" xlink:href="#ykkef"/><use fill="url(#ykkeg)" xlink:href="#ykkef"/></g></g></svg>