<svg xmlns="http://www.w3.org/2000/svg" xmlns:xlink="http://www.w3.org/1999/xlink" width="85" height="86" viewBox="0 0 85 86"><defs><path id="zovia" d="M526 196.94c0-7.15 5.8-12.94 12.94-12.94h30.12c7.15 0 12.94 5.8 12.94 12.94v30.12c0 7.15-5.8 12.94-12.94 12.94h-30.12c-7.15 0-12.94-5.8-12.94-12.94z"/><path id="zovib" d="M530.23 198.85l24.34-14.81 24.33 14.81v26.76l-23.55 14.18-25.12-13.5z"/><path id="zovic" d="M569 207.85c0 .32-.23.62-.45.85l-6.33 6.24 1.5 8.82c.02.13.02.23.02.36 0 .46-.21.88-.72.88a1.4 1.4 0 0 1-.7-.21l-7.82-4.17-7.83 4.17c-.22.12-.45.21-.7.21-.5 0-.72-.42-.72-.88 0-.13.01-.23.03-.36l1.5-8.82-6.34-6.24c-.21-.23-.44-.53-.44-.85 0-.53.54-.74.98-.81l8.74-1.29 3.93-8.03c.15-.33.45-.72.85-.72.4 0 .7.39.85.72l3.93 8.03 8.74 1.29c.42.07.98.28.98.81z"/><path id="zovid" d="M532.82 237.03v-49.06h44.36v49.06zm1.44-12.56l21.17 11.22 19.84-11.78V201.7l-20.5-12.31-20.51 12.3z"/><path id="zovil" d="M528 246v-68h53v68zm2.23-23.72l25.12 13.5 23.55-14.17v-26.76l-24.33-14.81-24.34 14.81z"/><path id="zovio" d="M526 249v-74h57v74zm4.23-17.72l25.12 13.5 23.55-14.17v-26.76l-24.33-14.81-24.34 14.81z"/><path id="zoviw" d="M534.26 201.69l20.5-12.31 20.51 12.3v22.23l-19.84 11.78-21.17-11.22z"/><mask id="zovif" width="2" height="2" x="-1" y="-1"><path fill="#fff" d="M526 184h56v56h-56z"/><use xlink:href="#zovia"/></mask><filter id="zovie" width="111" height="111" x="499" y="157" filterUnits="userSpaceOnUse"><feOffset dx="1" dy="1" in="SourceGraphic" result="FeOffset1025Out"/><feGaussianBlur in="FeOffset1025Out" result="FeGaussianBlur1026Out" stdDeviation="6.8 6.8"/></filter><linearGradient id="zovig" x1="554" x2="554" y1="185.59" y2="240" gradientUnits="userSpaceOnUse"><stop offset="0" stop-color="#d7f449"/><stop offset="1" stop-color="#b9ec26"/></linearGradient><radialGradient id="zovih" cx="554" cy="212" r="41.15" gradientUnits="userSpaceOnUse"><stop offset="0" stop-color="#fff" stop-opacity=".07"/><stop offset="1" stop-opacity=".07"/></radialGradient><mask id="zovij" width="2" height="2" x="-1" y="-1"><path fill="#fff" d="M530 184h49v56h-49z"/><use xlink:href="#zovib"/></mask><filter id="zovii" width="90" height="97" x="510" y="164" filterUnits="userSpaceOnUse"><feOffset dx="1" dy="1" in="SourceGraphic" result="FeOffset1050Out"/><feGaussianBlur in="FeOffset1050Out" result="FeGaussianBlur1051Out" stdDeviation="4 4"/></filter><linearGradient id="zovik" x1="554.57" x2="554.57" y1="227.19" y2="191.3" gradientUnits="userSpaceOnUse"><stop offset="0" stop-color="#b4dd3f"/><stop offset="1" stop-color="#add726"/></linearGradient><filter id="zovim" width="200%" height="200%" x="-50%" y="-50%"><feGaussianBlur in="SourceGraphic" result="FeGaussianBlur1059Out" stdDeviation="1 1"/></filter><mask id="zovin"><use fill="#fff" xlink:href="#zovib"/></mask><filter id="zovip" width="200%" height="200%" x="-50%" y="-50%"><feGaussianBlur in="SourceGraphic" result="FeGaussianBlur1064Out" stdDeviation="2 2"/></filter><mask id="zoviq"><use fill="#fff" xlink:href="#zovib"/></mask><clipPath id="zovir"><use fill="#fff" xlink:href="#zovib"/></clipPath><clipPath id="zovis"><use fill="#fff" xlink:href="#zovib"/></clipPath><mask id="zoviu" width="2.14" height="2.14" x="-1.07" y="-1.07"><path fill="#fff" d="M538 195h33v32h-33z"/><use xlink:href="#zovic"/></mask><filter id="zovit" width="57" height="58" x="526" y="183" filterUnits="userSpaceOnUse"><feOffset dy="2" in="SourceGraphic" result="FeOffset1085Out"/><feGaussianBlur in="FeOffset1085Out" result="FeGaussianBlur1086Out" stdDeviation="0.8 0.8"/></filter><linearGradient id="zoviv" x1="549.22" x2="554.5" y1="205.92" y2="214.8" gradientUnits="userSpaceOnUse"><stop offset="0" stop-color="#faffe4"/><stop offset="1" stop-color="#ffda47"/></linearGradient><clipPath id="zovix"><use fill="#fff" xlink:href="#zovid"/></clipPath></defs><g><g transform="translate(-513 -170)"><g><g filter="url(#zovie)"><use fill="none" stroke-width="0" mask="url(&quot;#zovif&quot;)" xlink:href="#zovia"/><use fill="#1e2a8c" xlink:href="#zovia"/></g><use fill="url(#zovig)" xlink:href="#zovia"/><use fill="url(#zovih)" xlink:href="#zovia"/></g><g><g><g filter="url(#zovii)"><use fill="none" stroke-opacity=".38" stroke-width="0" mask="url(&quot;#zovij&quot;)" xlink:href="#zovib"/><use fill="#1e2a8c" fill-opacity=".38" xlink:href="#zovib"/></g><use fill="url(#zovik)" xlink:href="#zovib"/><use fill="#9ab62e" stroke="#9ab62e" stroke-width="0" filter="url(#zovim)" mask="url(&quot;#zovin&quot;)" xlink:href="#zovil"/><use fill="#a4ce03" stroke="#a4ce03" stroke-width="4" filter="url(#zovip)" mask="url(&quot;#zoviq&quot;)" xlink:href="#zovio"/><use fill="#fff" fill-opacity="0" stroke="#d9f261" stroke-linecap="round" stroke-linejoin="bevel" stroke-miterlimit="50" stroke-width="7.92" clip-path="url(&quot;#zovir&quot;)" xlink:href="#zovib"/><use fill="#fff" fill-opacity="0" stroke="#edfc7e" stroke-linecap="round" stroke-linejoin="bevel" stroke-miterlimit="50" stroke-width="1.11" clip-path="url(&quot;#zovis&quot;)" xlink:href="#zovib"/></g><g><g filter="url(#zovit)"><use fill="none" stroke="#a9cf3d" stroke-width="4" mask="url(&quot;#zoviu&quot;)" xlink:href="#zovic"/><use fill="#a9cf3d" xlink:href="#zovic"/></g><use fill="url(#zoviv)" xlink:href="#zovic"/><use fill="#fff" fill-opacity="0" stroke="#a5d91e" stroke-miterlimit="50" stroke-width="2.51" xlink:href="#zovic"/></g><g><use fill="#fff" fill-opacity="0" stroke="#d9f261" stroke-linecap="round" stroke-linejoin="bevel" stroke-miterlimit="50" stroke-width="2.36" clip-path="url(&quot;#zovix&quot;)" xlink:href="#zoviw"/></g></g></g></g></svg>