<svg xmlns="http://www.w3.org/2000/svg" xmlns:xlink="http://www.w3.org/1999/xlink" width="51" height="50" viewBox="0 0 51 50"><defs><path id="vfb7a" d="M101 82.13c.02-2.8.94-5.38 2.05-7.9a588.17 588.17 0 0 1 10.51-22.43c1.88-3.8 4.57-6.88 8.77-8.15 5.62-1.69 11.45-.13 15.32 5.22 1.86 2.58 3.04 5.5 4.4 8.34a398.2 398.2 0 0 1 8.62 18.8c1.22 2.94 1.77 6.01.92 9.16-1.12 4.18-3.93 6.73-8.1 7.57-4.58.93-8.3-.67-11.04-4.48-.53-.75-.97-1.57-1.36-2.4-.26-.58-.57-.82-1.21-.8-2.26.03-4.52.04-6.78 0-.65-.02-.94.24-1.2.8-1.35 2.94-3.32 5.32-6.42 6.46-6.62 2.42-14.1-1.88-14.4-9.33l-.08-.86m25.38-2.2c1.65 0 1.62 0 1.57-1.61a6.91 6.91 0 0 1 3.92-6.79 6.99 6.99 0 0 1 7.82 1.03 6.9 6.9 0 0 1 2.06 7.57 6.81 6.81 0 0 1-4.6 4.6c-.28.09-.9.02-.48.69a5.64 5.64 0 0 0 5.83 2.35 5.31 5.31 0 0 0 4.25-4.13c.46-2.14-.1-4.12-.91-6.04a457.6 457.6 0 0 0-8.77-19.05c-1.1-2.27-2.03-4.61-3.51-6.66-3.53-4.88-9.83-5.12-13.7-.53-.8.93-1.41 1.97-1.94 3.06a676.88 676.88 0 0 0-9.82 20.98c-.83 1.86-1.66 3.71-1.96 5.76-.4 2.71.78 5.13 3.1 6.2a5.64 5.64 0 0 0 6.86-1.64c.49-.6.46-.79-.3-1.04a6.7 6.7 0 0 1-3.97-9.1c2.8-6.16 5.66-12.3 8.56-18.4a6.32 6.32 0 0 1 5.87-3.75c4.96-.14 8.3 5 6.24 9.57-2.32 5.13-4.73 10.2-7.1 15.3-.76 1.63-.76 1.63.98 1.63m-8.58.01c1.05.04 1.5-.5 1.84-1.26 2.67-5.8 5.37-11.58 8.06-17.37.56-1.2.35-2.17-.6-2.62-.96-.48-1.85-.02-2.44 1.25l-3.2 6.92-4.88 10.53c-.6 1.3.07 2.54 1.22 2.55m17.25-4.09a2.1 2.1 0 0 0-2.15 2.08 2.22 2.22 0 0 0 2.11 2.16A2.2 2.2 0 0 0 137.1 78a2.06 2.06 0 0 0-2.05-2.16"/></defs><g><g transform="translate(-101 -43)"><use fill="#56d811" xlink:href="#vfb7a"/></g></g></svg>