<svg xmlns="http://www.w3.org/2000/svg" xmlns:xlink="http://www.w3.org/1999/xlink" width="508" height="413" viewBox="0 0 508 413"><defs><path id="4j3ra" d="M1233.22 401.23v-8.16a4.2 4.2 0 0 1 3.73 2 4 4 0 0 1 0 4.16 4.2 4.2 0 0 1-3.73 2zm0-10.7v-5.1h-26.05V409a5.02 5.02 0 0 0 5.08 4.97h15.9c2.8 0 5.07-2.23 5.07-4.97v-5.23a6.7 6.7 0 0 0 6.78-6.63 6.7 6.7 0 0 0-6.78-6.63z"/><path id="4j3rc" d="M1232 401.7a3.71 3.71 0 1 1 0-7.43 3.71 3.71 0 0 1 0 7.42zm0-9.7a6 6 0 1 0 0 12 6 6 0 0 0 0-12z"/><path id="4j3rd" d="M1209 387h23v21.45a4.53 4.53 0 0 1-4.5 4.55h-14a4.53 4.53 0 0 1-4.5-4.55z"/><path id="4j3re" d="M1227.62 387v21.47c0 1.2-.49 2.35-1.35 3.2A4.67 4.67 0 0 1 1223 413h2.38a4.57 4.57 0 0 0 4.62-4.53V387z"/><path id="4j3rf" d="M1214.13 369.61c-.4.01-.8.2-1.04.53-.31.55.25 1.17.76 1.55.95.7 1.94 1.4 2.58 2.37.65.97.85 2.34.15 3.27-.92 1.22-3.1 1.49-3.32 3-.14.96.7 1.79 1.57 2.27 2.12 1.2 4.86 1.52 6.4 3.4.63-1.29 2.06-2.04 3.48-2.34 1.41-.3 2.89-.29 4.33-.5.48-.01.93-.25 1.2-.64.4-.8-.74-1.77-.35-2.57.3-.62 1.19-.57 1.83-.82 1.05-.4 1.49-1.73 1.19-2.8a5.31 5.31 0 0 0-2.03-2.6c-2.37-1.87-5.26-2.94-8.16-3.73-1.35-.37-2.94-.94-4.34-1-1.4-.05-2.9.39-4.25.61z"/><path id="4j3rg" d="M1051 419l-48 150"/><path id="4j3rh" d="M1042.82 405.9l-22.79-6.61v-19.48l24.77 26.25-1.98-.16zm46.51 179.45c-5.93.35-11.22 5.32-11.22 5.32l-2.56-6.34-.2.07c1.24-5.47 26.66-118.2 1.22-127.91-19.55-7.47-40.29-16.7-56.54-16.36v-26.64h22.78v-.93h18.03c3.46-2.47-1.57-4.18-7.18-5.23.23-.26.43-.55.6-.85l28.88-51.81s6.65-10.92 2.38-16.14c-4.28-5.22-10.44 13.3-10.44 13.3l-23.73 34.16s-23.97-24.97-39.18-37.38a26.66 26.66 0 0 0-5.67-4.3c-2.78-1.87-4.88-2.85-5.92-2.46h-.03c-2.3-.64-4.7-.97-7.09-.97h-1.9v-3.9a30.44 30.44 0 0 0 18.81-17.81 34.2 34.2 0 0 0 2.7-29.78c.3-.03.56-.12.8-.27.87-.56.94-1.77.87-2.79a21.14 21.14 0 0 0-10.73-16.53c-2.4-1.3-5.16-2.22-6.93-4.3-1.52-1.8-2.16-4.31-4-5.78-2.2-1.74-5.36-1.44-8.05-.66-2.99.86-5.82 2.2-8.4 3.96-2.9 2-5.52 4.55-8.87 5.65-2.37.79-4.95.77-7.35 1.5a12.34 12.34 0 0 0-7.94 7.75c-.6 1.95-.84 4-.68 6.03a33.97 33.97 0 0 0-3.4 7.76l-.55.29.52-.23A34.16 34.16 0 0 0 958 326.6a30.41 30.41 0 0 0 14.59 10.35v4.71c-4.13.9-8.08 2.51-11.65 4.77l-.82.54-.16.1c-3.5 2.4-15.27 11.1-14.88 20.5v1.1a36.2 36.2 0 0 0-.97 8.3v68.3a33.54 33.54 0 0 0 7.2 20.81c-9.91 2.22-16.22 5.57-16.22 9.33.05.3.05.62 0 .93 0 6.68 19.95 12.1 44.6 12.1 2.98 0 5.89-.08 8.7-.23l27.84 22.53-44.58 71.68s-14.71 11.39-3.33 15.19c11.4 3.8 34.65 6.64 34.65 6.64s3.8-6.64-1.43-9.49c-5.22-2.84-12.34-1.42-12.34-1.42l.93-5.7s77.35-66.43 61.21-89.2c-3.08-4.36-6.17-8.86-9.28-13.28l12.18 1.1 2.78 104.3.35-.12c-.7 2.05-5.61 17.51 5.29 14.9 11.67-2.79 32.91-12.69 32.91-12.69s-.3-7.65-6.23-7.3z"/><path id="4j3rj" d="M948 304a33 33 0 1 1 66 0 33 33 0 0 1-66 0z"/><path id="4j3rk" d="M1018.8 381.3l25.29 27.13a4.9 4.9 0 0 0 7.9-1l28.01-50.79-7.82-2.79-23 33.5s-43.2-45.52-49.24-43.27c-6.04 2.25 18.87 37.21 18.87 37.21z"/><path id="4j3rl" d="M970 476l-37 98"/><path id="4j3rm" d="M989 476l37 98"/><path id="4j3rn" d="M937 475c0-6.63 19.48-12 43.5-12s43.5 5.37 43.5 12-19.48 12-43.5 12-43.5-5.37-43.5-12z"/><path id="4j3ro" d="M962 495l41 13"/><path id="4j3rp" d="M998 495l-41 13"/><path id="4j3rq" d="M980.2 343h12.9c14.3 0 25.9 11.68 25.9 26.08V438h-74v-59.56c0-9.4 3.7-18.41 10.3-25.06A35.07 35.07 0 0 1 980.2 343z"/><path id="4j3rr" d="M945 437h74v41h-41.16C959.7 478 945 463.02 945 444.54z"/><path id="4j3rs" d="M946.07 371.25L991.2 414H1041v-6.43l-42.89-12.42L961.43 350s-16.67 10.25-15.36 21.25z"/><path id="4j3rt" d="M946.07 369.25L991.2 412H1041v-6.43l-42.89-12.42L961.43 348s-16.67 10.25-15.36 21.25z"/><path id="4j3ru" d="M1042 406s24.46 2 17.87 7H1042z"/><path id="4j3rv" d="M1073 353.33s6.24-17.35 10.55-12.46c4.32 4.9-2.4 15.13-2.4 15.13z"/><path id="4j3rw" d="M945 437v1.86l74 .14v-2h-74z"/><path id="4j3rx" d="M1003.66 481.84l49.66 4.58 2.7 102.58 17.78-5.85s26.6-116.24 1.24-126.04c-25.36-9.8-52.77-22.7-69.14-12.19-16.36 10.52-2.24 36.92-2.24 36.92z"/><path id="4j3ry" d="M1006 450s27.3 13.6 31 29"/><path id="4j3rz" d="M976.63 478.03l38.92 31.33L972 578.93l18.07 5.07s75.52-64.5 59.77-86.62c-15.75-22.11-31.5-47.91-50.97-48.37-19.46-.47-22.24 29.02-22.24 29.02z"/><path id="4j3rA" d="M1038 375l9.7 16 2.3-4.44-12-11.56z"/><path id="4j3rB" d="M972.59 579s-14.6 10.96-3.3 14.6c11.3 3.66 34.39 6.4 34.39 6.4s3.76-6.4-1.42-9.13c-5.18-2.74-12.24-1.37-12.24-1.37l.94-5.48z"/><path id="4j3rC" d="M1056.7 587.81s-6.16 17.66 4.97 14.9c11.12-2.76 31.33-12.5 31.33-12.5s-.28-7.53-5.93-7.2c-5.65.34-10.68 5.24-10.68 5.24l-2.44-6.25z"/><path id="4j3rD" d="M972 335.5a9.5 9.5 0 1 1 19 0v9a9.5 9.5 0 1 1-19 0z"/><path id="4j3rE" d="M981.5 328a9.42 9.42 0 0 0-9.5 9.33v3.17c6.17 2 12.83 2 19 0v-3.17c0-2.47-1-4.85-2.78-6.6a9.59 9.59 0 0 0-6.72-2.73z"/><path id="4j3rF" d="M952 310.5a29.5 29.5 0 1 1 59 0 29.5 29.5 0 0 1-59 0z"/><path id="4j3rG" d="M951.84 309.82s7.36 1.9 11.5-6.5c4.13-8.39 7.35-12.97 24.37-8 17.01 4.95 20.44 5.56 21.25.87.56-3.2-5.49-11-9.38-15.6-1.9-2.25-4.99-3.59-8.28-3.59h-19.23l-11.5 5.34-8.73 7.63-1.84 10.3z"/><path id="4j3rH" d="M951.84 307.82s7.36 1.9 11.5-6.5c4.13-8.39 7.35-12.97 24.37-8 17.01 4.95 20.44 5.56 21.25.87.56-3.2-5.49-11-9.38-15.6-1.9-2.25-4.99-3.59-8.28-3.59h-19.23l-11.5 5.34-8.73 7.63-1.84 10.3z"/><path id="4j3rI" d="M952 309c0-3.31 1.34-6 3-6s3 2.69 3 6-1.34 6-3 6-3-2.69-3-6z"/><path id="4j3rJ" d="M953.59 293.89c-.68-3.9-1.36-8-.11-11.76a12.05 12.05 0 0 1 7.71-7.6c2.31-.73 4.84-.71 7.15-1.48 3.25-1.08 5.8-3.6 8.62-5.55a28.3 28.3 0 0 1 8.16-3.9c2.6-.76 5.68-1.05 7.81.66 1.8 1.44 2.42 3.9 3.9 5.67 1.72 2.05 4.4 2.94 6.73 4.23a20.78 20.78 0 0 1 10.42 16.25c.07 1 0 2.2-.84 2.73-.52.27-1.1.38-1.69.32-11.79-.18-23.6-.35-35.34-1.44-3.65-.34-7.3-.77-10.97-.63A35.6 35.6 0 0 0 949 296"/><path id="4j3rK" d="M923.53 498.33a15.93 15.93 0 0 0-6.23-16.8c-1.39-.94-2.9-1.65-4.17-2.73-2.1-1.8-3.31-4.44-4.19-7.08-2.09-6.34-2.75-13.45-6.42-19.17-3.34-5.22-9.84-6.74-15.62-7.26-2.1-.2-4.3-.29-6.23.59-3.21 1.46-4.75 5.3-4.89 8.86-.14 3.57.77 7.07 1 10.62.24 3.54-.4 7.46-3 9.86-2.6 2.4-6.31 2.7-9.76 3.17a64.23 64.23 0 0 0-13.23 3.32c-3.6 1.32-7.6 3.7-7.77 7.55-.14 3.15 2.38 5.67 4.27 8.17 3.54 4.67 5.31 10.87 4.11 16.64-1.22 5.86-5.3 10.9-6.05 16.85a7.39 7.39 0 0 0 .6 4.45 8.12 8.12 0 0 0 2.23 2.38c2.22 1.74 4.7 3.13 6.8 5 4.38 3.92 6.76 9.6 8.59 15.2l.5 1.64h-4.31c-8.8.02-15.91 7.2-15.94 16.06a16.05 16.05 0 0 0 15.94 16.07h43.04c8.8-.03 15.91-7.2 15.94-16.07a16.05 16.05 0 0 0-15.98-16.1h-11.78c2.77-3.76 5.7-7.3 10-8.75 4.3-1.45 9.52-.6 12.9-3.62 1.64-1.48 2.52-3.66 2.92-5.85.71-3.95.05-8.03-1.89-11.55-1.36-2.44-3.34-4.67-3.77-7.42-.36-2.36.47-4.76 1.63-6.85 3.25-5.97 9.01-10.6 10.76-17.18z"/><path id="4j3rM" d="M886.73 450.12c-2-.18-4.09-.27-5.92.55-3.05 1.39-4.51 4.99-4.65 8.33-.14 3.35.73 6.65.95 10 .22 3.34-.38 7.01-2.85 9.28-2.47 2.26-6 2.53-9.28 2.98-4.3.6-8.51 1.64-12.58 3.12-3.42 1.24-7.23 3.48-7.4 7.1-.12 2.97 2.27 5.34 4.07 7.7 3.37 4.4 5.05 10.22 3.9 15.65-1.16 5.53-5.05 10.26-5.75 15.86a6.87 6.87 0 0 0 .57 4.18 7.67 7.67 0 0 0 2.12 2.25c2.11 1.63 4.47 2.94 6.47 4.7 4.16 3.7 6.42 9.03 8.16 14.3 1.7 5.2 3.05 10.5 4 15.88 3.6-2.3 8.23-2.27 12.06-4.15 8.16-3.99 10.9-15.56 19.51-18.45 4.08-1.36 9.05-.56 12.26-3.4 1.56-1.4 2.4-3.45 2.77-5.5.68-3.72.05-7.55-1.78-10.86-1.29-2.3-3.17-4.38-3.58-6.98-.36-2.22.46-4.47 1.54-6.46 3.1-5.61 8.57-9.97 10.24-16.16 1.49-6-.87-12.29-5.93-15.83-1.3-.88-2.77-1.55-3.97-2.56-2.01-1.7-3.16-4.18-3.99-6.67-1.99-5.96-2.62-12.65-6.1-18.04-3.17-4.9-9.35-6.33-14.84-6.82z"/><path id="4j3rN" d="M886.52 450s7.83 102.4-12.52 120"/><path id="4j3rO" d="M845 573a15 15 0 0 1 15-15h42a15 15 0 0 1 0 30h-42a15 15 0 0 1-15-15z"/><path id="4j3rP" d="M845 489.14s19.36-2.4 43 12.86"/><path id="4j3rQ" d="M888 514s10.8-17.63 34-21"/><path id="4j3rR" d="M847 530.55s27.4-5.2 40 3.45"/><path id="4j3rS" d="M885 546s14.12-7.9 30-1.48"/><path id="4j3rT" d="M1113.5 449a.5.5 0 1 0 0-1 .5.5 0 0 0 0 1z"/><path id="4j3rV" d="M1215 419l48 172"/><path id="4j3rW" d="M1003 423v-10h261v10z"/><path id="4j3rX" d="M1067 414a3 3 0 0 1 3-3h37a3 3 0 0 1 0 6h-37a3 3 0 0 1-3-3z"/><path id="4j3rY" d="M1093.03 372.26a28.22 28.22 0 0 1 28.22-28.22h49.4a28.22 28.22 0 0 1 28.22 28.22v16.15a28.22 28.22 0 0 1-28.22 28.22h-49.4a28.22 28.22 0 0 1-28.22-28.22z"/><path id="4j3raa" d="M1095 371.84a26.84 26.84 0 0 1 26.84-26.84h47.32a26.84 26.84 0 0 1 26.84 26.84v18.32a26.84 26.84 0 0 1-26.84 26.84h-47.32a26.84 26.84 0 0 1-26.84-26.84z"/><path id="4j3rab" d="M1097 371.84a26.84 26.84 0 0 1 26.84-26.84h47.32a26.84 26.84 0 0 1 26.84 26.84v18.32a26.84 26.84 0 0 1-26.84 26.84h-47.32a26.84 26.84 0 0 1-26.84-26.84z"/><path id="4j3rac" d="M1148 381.5a3.5 3.5 0 1 1 7 0 3.5 3.5 0 0 1-7 0z"/><linearGradient id="4j3rb" x1="1223.59" x2="1223.59" y1="413.96" y2="385.43" gradientUnits="userSpaceOnUse"><stop offset="0" stop-color="gray" stop-opacity=".25"/><stop offset=".54" stop-color="gray" stop-opacity=".12"/><stop offset="1" stop-color="gray" stop-opacity=".1"/></linearGradient><linearGradient id="4j3ri" x1="1015.33" x2="1015.33" y1="605.64" y2="258.46" gradientUnits="userSpaceOnUse"><stop offset="0" stop-color="gray" stop-opacity=".25"/><stop offset=".54" stop-color="gray" stop-opacity=".12"/><stop offset="1" stop-color="gray" stop-opacity=".1"/></linearGradient><linearGradient id="4j3rL" x1="843" x2="924.03" y1="518.42" y2="518.42" gradientUnits="userSpaceOnUse"><stop offset="0" stop-color="gray" stop-opacity=".25"/><stop offset=".54" stop-color="gray" stop-opacity=".12"/><stop offset="1" stop-color="gray" stop-opacity=".1"/></linearGradient><linearGradient id="4j3rU" x1="1113.5" x2="1113.5" y1="449" y2="448" gradientUnits="userSpaceOnUse"><stop offset="0" stop-color="gray" stop-opacity=".25"/><stop offset=".54" stop-color="gray" stop-opacity=".12"/><stop offset="1" stop-color="gray" stop-opacity=".1"/></linearGradient><linearGradient id="4j3rZ" x1="1145.95" x2="1145.95" y1="416.62" y2="344.04" gradientUnits="userSpaceOnUse"><stop offset="0" stop-color="gray" stop-opacity=".25"/><stop offset=".54" stop-color="gray" stop-opacity=".12"/><stop offset="1" stop-color="gray" stop-opacity=".1"/></linearGradient></defs><g><g transform="translate(-835 -258)"><g opacity=".7"><g opacity=".7"><use fill="url(#4j3rb)" xlink:href="#4j3ra"/></g></g><g><use fill="#6c63ff" xlink:href="#4j3rc"/></g><g opacity=".1"><use xlink:href="#4j3rc"/></g><g><use fill="#6c63ff" xlink:href="#4j3rd"/></g><g opacity=".1"><use xlink:href="#4j3re"/></g><g><use fill="#eee" xlink:href="#4j3rf"/></g><g><use fill="#fff" fill-opacity="0" stroke="#e0e0e0" stroke-miterlimit="50" stroke-width="8" xlink:href="#4j3rg"/></g><g opacity=".7"><g opacity=".7"><use fill="url(#4j3ri)" xlink:href="#4j3rh"/></g></g><g><use xlink:href="#4j3rj"/></g><g><use fill="#6c63ff" xlink:href="#4j3rk"/></g><g><use fill="#fff" fill-opacity="0" stroke="#bdbdbd" stroke-miterlimit="50" stroke-width="5" xlink:href="#4j3rl"/></g><g><use fill="#fff" fill-opacity="0" stroke="#bdbdbd" stroke-miterlimit="50" stroke-width="5" xlink:href="#4j3rm"/></g><g><use fill="#b84733" xlink:href="#4j3rn"/></g><g><use fill="#f55f44" xlink:href="#4j3rn"/></g><g><use fill="#fff" fill-opacity="0" stroke="#bdbdbd" stroke-miterlimit="50" stroke-width="5" xlink:href="#4j3ro"/></g><g><use fill="#fff" fill-opacity="0" stroke="#bdbdbd" stroke-miterlimit="50" stroke-width="5" xlink:href="#4j3rp"/></g><g><use fill="#6c63ff" xlink:href="#4j3rq"/></g><g><use fill="#39447a" xlink:href="#4j3rr"/></g><g opacity=".05"><use xlink:href="#4j3rs"/></g><g><use fill="#6c63ff" xlink:href="#4j3rt"/></g><g><use fill="#fda57d" xlink:href="#4j3ru"/></g><g><use fill="#fda57d" xlink:href="#4j3rv"/></g><g opacity=".05"><use xlink:href="#4j3rw"/></g><g><use fill="#39447a" xlink:href="#4j3rx"/></g><g opacity=".1"><use xlink:href="#4j3ry"/></g><g><use fill="#39447a" xlink:href="#4j3rz"/></g><g opacity=".05"><use xlink:href="#4j3rA"/></g><g><use fill="#333" xlink:href="#4j3rB"/></g><g><use fill="#333" xlink:href="#4j3rC"/></g><g><use fill="#fda57d" xlink:href="#4j3rD"/></g><g opacity=".05"><use xlink:href="#4j3rE"/></g><g><use fill="#fda57d" xlink:href="#4j3rF"/></g><g opacity=".05"><use xlink:href="#4j3rG"/></g><g><use xlink:href="#4j3rH"/></g><g><use fill="#fda57d" xlink:href="#4j3rI"/></g><g><use xlink:href="#4j3rJ"/></g><g opacity=".7"><g opacity=".7"><use fill="url(#4j3rL)" xlink:href="#4j3rK"/></g></g><g><use fill="#00d071" xlink:href="#4j3rM"/></g><g opacity=".6"><use fill="#fff" fill-opacity="0" stroke="#535461" stroke-miterlimit="50" xlink:href="#4j3rN"/></g><g><use fill="#6c63ff" xlink:href="#4j3rO"/></g><g opacity=".6"><use fill="#fff" fill-opacity="0" stroke="#535461" stroke-miterlimit="50" xlink:href="#4j3rP"/></g><g opacity=".6"><use fill="#fff" fill-opacity="0" stroke="#535461" stroke-miterlimit="50" xlink:href="#4j3rQ"/></g><g opacity=".6"><use fill="#fff" fill-opacity="0" stroke="#535461" stroke-miterlimit="50" xlink:href="#4j3rR"/></g><g opacity=".6"><use fill="#fff" fill-opacity="0" stroke="#535461" stroke-miterlimit="50" xlink:href="#4j3rS"/></g><g><use fill="url(#4j3rU)" xlink:href="#4j3rT"/></g><g><use fill="#fff" fill-opacity="0" stroke="#e0e0e0" stroke-miterlimit="50" stroke-width="8" xlink:href="#4j3rV"/></g><g><use fill="#e0e0e0" xlink:href="#4j3rW"/></g><g><use fill="#535461" xlink:href="#4j3rX"/></g><g opacity=".7"><g opacity=".7"><use fill="url(#4j3rZ)" xlink:href="#4j3rY"/></g></g><g><use fill="#3e3f49" xlink:href="#4j3raa"/></g><g><use fill="#535461" xlink:href="#4j3rab"/></g><g><use fill="#e0e0e0" xlink:href="#4j3rac"/></g></g></g></svg>