<svg xmlns="http://www.w3.org/2000/svg" xmlns:xlink="http://www.w3.org/1999/xlink" width="57" height="62" viewBox="0 0 57 62"><defs><path id="ges8a" d="M939 990.5a24.5 24.5 0 1 1 49 0 24.5 24.5 0 0 1-49 0z"/><path id="ges8b" d="M974.7 976a13.34 13.34 0 0 1 4.27 9.7c0 4.2-2.21 9.8-5.4 13.72v7.87a.7.7 0 0 1-.7.71c-2.39 0-4.75 1.19-7.14 1.19-2.24 0-4.51-1.19-6.75-1.19a.7.7 0 0 1-.7-.7v-6l-3.16.45a2.95 2.95 0 0 1-3.26-2.9l-.63-4.26h-.77c-.89 0-1.68-.45-2.12-1.22a2.44 2.44 0 0 1-.02-2.45l2.81-4.95v-.26A13.7 13.7 0 0 1 964.8 972a14.5 14.5 0 0 1 9.9 4zm-2.42 4.5v-.94a.7.7 0 0 0-.7-.7h-3.65c-1.11 0-2.17.42-3 1.19a4.42 4.42 0 0 0-3-1.2h-3.65a.7.7 0 0 0-.7.71v.94H956a.7.7 0 0 0-.7.71v10.63c0 .39.32.7.7.7h17.83a.7.7 0 0 0 .7-.7V981.2a.7.7 0 0 0-.7-.7zm-1.4-.23v7.82h-3.28l-.21.02h-.04a4.2 4.2 0 0 0-.44.09h-.04a4.33 4.33 0 0 0-.45.14h-.02a4.4 4.4 0 0 0-.2.08l-.03.01a4.34 4.34 0 0 0-.42.21l-.03.02-.09.05v-7.37a3.07 3.07 0 0 1 2.3-1.07zm-11.9 0h2.95c.86 0 1.69.39 2.3 1.07v7.37l-.1-.05-.02-.02a4.63 4.63 0 0 0-.2-.1l-.03-.02a4.51 4.51 0 0 0-.2-.09h-.03a4.42 4.42 0 0 0-.2-.09h-.01a4.35 4.35 0 0 0-.21-.07l-.04-.01a4.3 4.3 0 0 0-.2-.06h-.04a4.22 4.22 0 0 0-.44-.08h-.05l-.2-.02h-.05l-.22-.01h-3zm-2.26 1.65h.86v6.86c0 .4.31.71.7.71h3.92l.11.02h.07l.1.02.06.01.1.02.06.02a3.1 3.1 0 0 1 .55.2l.06.03.09.04.06.04.1.05.04.03a3.03 3.03 0 0 1 .27.2c.02 0 .03.02.04.03l.09.07.05.05.08.07.04.05.05.05v.64h-7.5zm16.43 9.21h-7.52v-.64l.05-.05.05-.05.08-.07.04-.05.1-.07.03-.03.28-.2.04-.02c.03-.02.06-.05.1-.06l.05-.03.1-.05.05-.03a3 3 0 0 1 .1-.04l.06-.03a3.4 3.4 0 0 1 .56-.17h.06l.1-.02.07-.01.1-.01h.06l.16-.01h3.71a.7.7 0 0 0 .7-.7v-6.87h.87z"/><path id="ges8c" d="M959 961.86s-6.12.92-10.44 3.3c-4.33 2.37-7.56 5.9-7.56 5.9"/><path id="ges8d" d="M934.01 994.68s-.66-4.23 0-9.24c.67-5.01 3.24-9.02 3.24-9.02"/><path id="ges8e" d="M935.36 998.88s1.12 4.17 2.1 6.13a29.57 29.57 0 0 0 3.31 4.64"/><path id="ges8f" d="M943.51 1012.66s2.38 2.06 3.67 2.86a14.7 14.7 0 0 0 4.33 1.51"/><path id="ges8g" d="M955.3 1018.42s2.6.64 4.02.78c1.42.14 4.01 0 4.01 0"/></defs><g><g transform="translate(-931 -959)"><g><use fill="#ecd299" xlink:href="#ges8a"/></g><g><g><g><g><use fill="#ccab66" xlink:href="#ges8b"/></g></g></g></g><g><g><use fill="#fff" fill-opacity="0" stroke="#eaeaea" stroke-linecap="square" stroke-miterlimit="50" stroke-width="5" xlink:href="#ges8c"/></g><g><use fill="#fff" fill-opacity="0" stroke="#15af68" stroke-miterlimit="50" stroke-width="4" xlink:href="#ges8d"/></g><g><use fill="#fff" fill-opacity="0" stroke="#00be67" stroke-miterlimit="50" stroke-width="3" xlink:href="#ges8e"/></g><g><use fill="#fff" fill-opacity="0" stroke="#e7b64e" stroke-miterlimit="50" stroke-width="3" xlink:href="#ges8f"/></g><g><use fill="#fff" fill-opacity="0" stroke="#e7b64e" stroke-miterlimit="50" stroke-width="2" xlink:href="#ges8g"/></g></g></g></g></svg>